<mxfile host="Electron" modified="2024-04-10T08:25:41.160Z" agent="Mozilla/5.0 (Windows NT 10.0; Win64; x64) AppleWebKit/537.36 (KHTML, like Gecko) draw.io/22.1.2 Chrome/114.0.5735.289 Electron/25.9.4 Safari/537.36" etag="bDE3TJLr3pQHUaaBS6T5" version="22.1.2" type="device">
  <diagram name="第 1 页" id="BXaohhIrTmtH9dlJMdMU">
    <mxGraphModel dx="1962" dy="1309" grid="1" gridSize="10" guides="1" tooltips="1" connect="1" arrows="1" fold="1" page="0" pageScale="1" pageWidth="827" pageHeight="1169" math="0" shadow="0">
      <root>
        <mxCell id="0" />
        <mxCell id="1" parent="0" />
        <mxCell id="KBm5PCcGG2z9vyLYywhF-1" value="" style="rounded=1;whiteSpace=wrap;html=1;fillColor=#dae8fc;strokeColor=#6c8ebf;" parent="1" vertex="1">
          <mxGeometry x="-210" y="-70" width="450" height="550" as="geometry" />
        </mxCell>
        <mxCell id="KBm5PCcGG2z9vyLYywhF-4" value="" style="rounded=1;whiteSpace=wrap;html=1;fillColor=#d5e8d4;strokeColor=#82b366;" parent="1" vertex="1">
          <mxGeometry x="-190" y="-5" width="410" height="140" as="geometry" />
        </mxCell>
        <mxCell id="KBm5PCcGG2z9vyLYywhF-6" value="" style="rounded=1;whiteSpace=wrap;html=1;fillColor=#ffe6cc;strokeColor=#d79b00;fontStyle=1" parent="1" vertex="1">
          <mxGeometry x="-170" y="10" width="170" height="110" as="geometry" />
        </mxCell>
        <mxCell id="KBm5PCcGG2z9vyLYywhF-7" value="" style="rounded=1;whiteSpace=wrap;html=1;fillColor=#f8cecc;strokeColor=#b85450;" parent="1" vertex="1">
          <mxGeometry x="-195" y="157" width="194" height="291" as="geometry" />
        </mxCell>
        <mxCell id="KBm5PCcGG2z9vyLYywhF-10" value="本地方法栈&lt;br&gt;Native Method Stack" style="rounded=1;whiteSpace=wrap;html=1;fillColor=#ffe6cc;strokeColor=#d79b00;fontStyle=1" parent="1" vertex="1">
          <mxGeometry x="-181.75" y="361" width="169.75" height="60" as="geometry" />
        </mxCell>
        <mxCell id="KBm5PCcGG2z9vyLYywhF-16" value="程序计数器&lt;br&gt;Program Counter Register" style="rounded=1;whiteSpace=wrap;html=1;fillColor=#ffe6cc;strokeColor=#d79b00;fontStyle=1" parent="1" vertex="1">
          <mxGeometry x="-182.75" y="216" width="169.5" height="60" as="geometry" />
        </mxCell>
        <mxCell id="KBm5PCcGG2z9vyLYywhF-17" value="虚拟机栈&lt;br&gt;VM Stack" style="rounded=1;whiteSpace=wrap;html=1;fillColor=#ffe6cc;strokeColor=#d79b00;fontStyle=1" parent="1" vertex="1">
          <mxGeometry x="-182.75" y="288.5" width="170.75" height="60" as="geometry" />
        </mxCell>
        <mxCell id="KBm5PCcGG2z9vyLYywhF-27" value="" style="rounded=1;whiteSpace=wrap;html=1;fillColor=#ffe6cc;strokeColor=#d79b00;fontStyle=1" parent="1" vertex="1">
          <mxGeometry x="20" y="10" width="180" height="110" as="geometry" />
        </mxCell>
        <mxCell id="KBm5PCcGG2z9vyLYywhF-28" value="线程&lt;br&gt;Thread" style="text;html=1;strokeColor=none;fillColor=none;align=center;verticalAlign=middle;whiteSpace=wrap;rounded=0;fontStyle=1" parent="1" vertex="1">
          <mxGeometry x="-126.87" y="174" width="60" height="30" as="geometry" />
        </mxCell>
        <mxCell id="KBm5PCcGG2z9vyLYywhF-29" value="方法区&lt;br&gt;Method Area" style="text;html=1;strokeColor=none;fillColor=none;align=center;verticalAlign=middle;whiteSpace=wrap;rounded=0;fontStyle=1" parent="1" vertex="1">
          <mxGeometry x="65" y="20" width="90" height="30" as="geometry" />
        </mxCell>
        <mxCell id="KBm5PCcGG2z9vyLYywhF-30" value="运行时常量池&lt;br&gt;Runtime Constant Pool" style="rounded=1;whiteSpace=wrap;html=1;fillColor=#e1d5e7;strokeColor=#9673a6;fontStyle=1" parent="1" vertex="1">
          <mxGeometry x="30" y="60" width="160" height="50" as="geometry" />
        </mxCell>
        <mxCell id="KBm5PCcGG2z9vyLYywhF-37" value="" style="group" parent="1" vertex="1" connectable="0">
          <mxGeometry x="30.000000000000004" y="157" width="194" height="291" as="geometry" />
        </mxCell>
        <mxCell id="KBm5PCcGG2z9vyLYywhF-36" value="" style="rounded=1;whiteSpace=wrap;html=1;fillColor=#f8cecc;strokeColor=#b85450;" parent="KBm5PCcGG2z9vyLYywhF-37" vertex="1">
          <mxGeometry width="194" height="291" as="geometry" />
        </mxCell>
        <mxCell id="KBm5PCcGG2z9vyLYywhF-31" value="本地方法栈&lt;br&gt;Native Method Stack" style="rounded=1;whiteSpace=wrap;html=1;fillColor=#ffe6cc;strokeColor=#d79b00;fontStyle=1" parent="KBm5PCcGG2z9vyLYywhF-37" vertex="1">
          <mxGeometry x="12.119999999999997" y="204" width="169.75" height="60" as="geometry" />
        </mxCell>
        <mxCell id="KBm5PCcGG2z9vyLYywhF-32" value="虚拟机栈&lt;br&gt;VM Stack" style="rounded=1;whiteSpace=wrap;html=1;fillColor=#ffe6cc;strokeColor=#d79b00;fontStyle=1" parent="KBm5PCcGG2z9vyLYywhF-37" vertex="1">
          <mxGeometry x="11.119999999999997" y="131.5" width="170.75" height="60" as="geometry" />
        </mxCell>
        <mxCell id="KBm5PCcGG2z9vyLYywhF-33" value="程序计数器&lt;br&gt;Program Counter Register" style="rounded=1;whiteSpace=wrap;html=1;fillColor=#ffe6cc;strokeColor=#d79b00;fontStyle=1" parent="KBm5PCcGG2z9vyLYywhF-37" vertex="1">
          <mxGeometry x="11.119999999999997" y="59" width="169.5" height="60" as="geometry" />
        </mxCell>
        <mxCell id="KBm5PCcGG2z9vyLYywhF-34" value="线程&lt;br&gt;Thread" style="text;html=1;strokeColor=none;fillColor=none;align=center;verticalAlign=middle;whiteSpace=wrap;rounded=0;fontStyle=1" parent="KBm5PCcGG2z9vyLYywhF-37" vertex="1">
          <mxGeometry x="67" y="17" width="60" height="30" as="geometry" />
        </mxCell>
        <mxCell id="KBm5PCcGG2z9vyLYywhF-39" value="运行时区域" style="text;html=1;strokeColor=none;fillColor=none;align=center;verticalAlign=middle;whiteSpace=wrap;rounded=0;fontStyle=1;fontSize=17;" parent="1" vertex="1">
          <mxGeometry x="-80" y="-50" width="190" height="30" as="geometry" />
        </mxCell>
        <mxCell id="KBm5PCcGG2z9vyLYywhF-40" value="本地内存" style="rounded=1;whiteSpace=wrap;html=1;fillColor=#dae8fc;strokeColor=#6c8ebf;fontStyle=1" parent="1" vertex="1">
          <mxGeometry x="-210" y="500" width="450" height="132" as="geometry" />
        </mxCell>
        <mxCell id="KBm5PCcGG2z9vyLYywhF-45" value="直接内存&lt;br&gt;Direct Memory" style="rounded=1;whiteSpace=wrap;html=1;fillColor=#ffe6cc;strokeColor=#d79b00;fontStyle=1" parent="1" vertex="1">
          <mxGeometry x="-200" y="511" width="180" height="110" as="geometry" />
        </mxCell>
        <mxCell id="-shTwuOFEqHviX36iW9t-2" value="字符串常量池&lt;br&gt;String Constant Pool" style="rounded=1;whiteSpace=wrap;html=1;fillColor=#e1d5e7;strokeColor=#9673a6;fontStyle=1" vertex="1" parent="1">
          <mxGeometry x="-160" y="60" width="150" height="50" as="geometry" />
        </mxCell>
        <mxCell id="-shTwuOFEqHviX36iW9t-3" value="堆&lt;br&gt;Heap" style="text;html=1;strokeColor=none;fillColor=none;align=center;verticalAlign=middle;whiteSpace=wrap;rounded=0;fontStyle=1" vertex="1" parent="1">
          <mxGeometry x="-130" y="20" width="90" height="30" as="geometry" />
        </mxCell>
      </root>
    </mxGraphModel>
  </diagram>
</mxfile>
